Coordinates
version=1
nRows=9
nColumns=24
inDegrees=yes

Units are S.I. units (second, meters, Newtons, ...)
Angles are in degrees.

endheader
time	pelvis_tilt	pelvis_list	pelvis_rotation	pelvis_tx	pelvis_ty	pelvis_tz	hip_flexion_r	hip_adduction_r	hip_rotation_r	knee_angle_r	ankle_angle_r	subtalar_angle_r	mtp_angle_r	hip_flexion_l	hip_adduction_l	hip_rotation_l	knee_angle_l	ankle_angle_l	subtalar_angle_l	mtp_angle_l	lumbar_extension	lumbar_bending	lumbar_rotation
      0.94883333	      6.61019564	     -2.22244282	     -0.10998813	     -0.17094897	      1.00104068	      0.29538448	    -18.33299939	      7.01331085	      2.11149101	     -7.76363339	     10.61407695	    -11.92223625	     -9.81063392	     17.05899070	     -0.83887483	     -2.99460848	    -10.51318933	     -0.22270593	     -3.73339653	     -2.19483392	     -9.14336921	      5.64428105	      6.40209680
      0.95300000	      6.61476762	     -2.17675363	     -0.12991713	     -0.16543770	      1.00041479	      0.29505408	    -18.37919800	      6.94816232	      2.11767398	     -8.36120289	     10.84057714	    -11.87838254	     -9.80660907	     16.92686782	     -0.71997912	     -2.93037635	    -10.33944257	     -0.38697839	     -3.66403076	     -2.07210492	     -9.14558980	      5.58591484	      6.45678713
      0.95716667	      6.59747441	     -2.12398019	     -0.13529720	     -0.15986927	      0.99979539	      0.29467135	    -18.34730822	      6.86334061	      1.94945764	     -9.05561351	     11.00739774	    -11.53402430	     -9.77602905	     16.79941972	     -0.58092657	     -2.79191671	    -10.20401774	     -0.61199560	     -3.73765495	     -1.44338278	     -9.07915366	      5.53175820	      6.55034286
      0.96133333	      6.60005332	     -2.09842182	     -0.14261868	     -0.15431160	      0.99924882	      0.29436969	    -18.35535810	      6.83071821	      2.00380363	     -9.72006748	     11.11833225	    -11.67947836	     -9.76757675	     16.68843315	     -0.49121469	     -2.73975457	    -10.22014721	     -0.77732331	     -3.64611618	     -1.37312362	     -9.05272036	      5.49238267	      6.52304333
      0.96550000	      6.59598150	     -2.05337234	     -0.13867219	     -0.14871963	      0.99874710	      0.29404583	    -18.32765096	      6.77995698	      2.03714325	    -10.43963221	     11.23863091	    -11.79198749	     -9.75116324	     16.57924408	     -0.37478502	     -2.64370874	    -10.29640485	     -0.97796241	     -3.61406025	     -1.27924917	     -9.01492401	      5.42361101	      6.51835384
      0.96966667	      6.57533865	     -1.99760067	     -0.13246921	     -0.14310582	      0.99828747	      0.29370877	    -18.24815726	      6.71562525	      2.04979133	    -11.22346184	     11.34048280	    -11.86123043	     -9.72099469	     16.48142633	     -0.24295073	     -2.51435363	    -10.42014010	     -1.21807715	     -3.65340834	     -1.14846896	     -8.95882222	      5.34930139	      6.52363486
      0.97383333	      6.61032166	     -1.90962678	     -0.12250758	     -0.13745735	      0.99793387	      0.29330081	    -18.16561277	      6.59041642	      1.86125335	    -12.11812513	     11.43656987	    -11.42907898	     -9.18371893	     16.27734511	     -0.06197187	     -2.30611253	    -10.50309848	     -1.57288741	     -3.91324996	      0.66952970	     -8.96739114	      5.25469620	      6.47339546
      0.97800000	      6.56897173	     -1.86357447	     -0.09232600	     -0.13180775	      0.99753356	      0.29296238	    -18.01319417	      6.55155647	      1.89569129	    -12.98821784	     11.39169874	    -11.68872227	     -9.14104228	     16.22328502	      0.05719082	     -2.16940286	    -10.77564975	     -1.76660762	     -3.92802039	      0.76386138	     -8.87416026	      5.18382670	      6.48550431
      0.98216667	      6.54879377	     -1.81099405	     -0.07015450	     -0.12612849	      0.99723292	      0.29262538	    -17.84695844	      6.49680228	      1.89173029	    -13.92312131	     11.32362436	    -11.81764605	     -9.08381274	     16.12486814	      0.18195573	     -2.02818222	    -11.04941845	     -2.00891329	     -4.02352622	      0.86127237	     -8.80083436	      5.09856090	      6.46681365
